<?xml version="1.0" encoding="UTF-8" standalone="no" ?>
<!DOCTYPE svg PUBLIC "-//W3C//DTD SVG 1.1//EN" "http://www.w3.org/Graphics/SVG/1.1/DTD/svg11.dtd">
<svg xmlns="http://www.w3.org/2000/svg" xmlns:xlink="http://www.w3.org/1999/xlink" version="1.1" width="640" height="480" viewBox="0 0 640 480" xml:space="preserve">
<desc>Created with Fabric.js 3.6.6</desc>
<defs>
</defs>
<g transform="matrix(0.51 0 0 0.51 127.06 119.19)"  >
<g style=""   >
		<g transform="matrix(0.06 0 0 -0.06 5.16 -177.35)"  >
<path style="stroke: none; stroke-width: 1; stroke-dasharray: none; stroke-linecap: butt; stroke-dashoffset: 0; stroke-linejoin: miter; stroke-miterlimit: 4; fill: rgb(28,12,201); fill-rule: nonzero; opacity: 1;"  transform=" translate(-3689.75, -6418.04)" d="M 3653 6499 c -39 -11 -83 -62 -83 -95 c 0 -14 11 -36 25 -49 c 51 -52 185 -22 209 46 c 27 78 -49 127 -151 98 z" stroke-linecap="round" />
</g>
		<g transform="matrix(0.06 0 0 -0.06 -179.17 -158.08)"  >
<path style="stroke: none; stroke-width: 1; stroke-dasharray: none; stroke-linecap: butt; stroke-dashoffset: 0; stroke-linejoin: miter; stroke-miterlimit: 4; fill: rgb(28,12,201); fill-rule: nonzero; opacity: 1;"  transform=" translate(-789.73, -6092.47)" d="M 725 6476 c -99 -32 -166 -81 -216 -158 c -107 -166 -87 -376 48 -511 c 101 -102 236 -131 405 -89 c 64 17 92 19 123 12 c 22 -5 41 -7 43 -6 c 2 2 -4 30 -14 62 c -19 67 -15 169 10 228 l 15 36 l -119 0 l -119 0 l 16 -42 c 19 -53 22 -189 4 -240 c -12 -36 -15 -38 -57 -38 c -118 0 -191 104 -202 287 c -9 162 36 301 122 381 c 117 108 239 51 281 -133 l 11 -49 l 12 95 c 6 52 14 109 18 126 l 6 31 l -78 6 c -216 15 -270 15 -309 2 z" stroke-linecap="round" />
</g>
		<g transform="matrix(0.06 0 0 -0.06 -24.26 -157.81)"  >
<path style="stroke: none; stroke-width: 1; stroke-dasharray: none; stroke-linecap: butt; stroke-dashoffset: 0; stroke-linejoin: miter; stroke-miterlimit: 4; fill: rgb(28,12,201); fill-rule: nonzero; opacity: 1;"  transform=" translate(-3228, -6092.5)" d="M 2925 6445 c 40 -197 39 -504 -1 -702 l -6 -33 l 122 0 l 122 0 l -6 28 c -12 59 -25 161 -32 250 l -7 92 l 69 0 c 81 0 140 -25 183 -77 l 29 -35 l 0 125 l 0 126 l -31 -36 c -45 -51 -98 -73 -181 -73 l -68 0 l 6 83 c 4 45 12 122 18 170 l 11 89 l 55 -7 c 136 -17 237 -89 283 -200 c 12 -28 13 -25 20 56 c 5 48 13 105 18 128 l 9 40 l -310 3 l -310 3 l 7 -30 z" stroke-linecap="round" />
</g>
		<g transform="matrix(0.06 0 0 -0.06 -144.98 -155.71)"  >
<path style="stroke: none; stroke-width: 1; stroke-dasharray: none; stroke-linecap: butt; stroke-dashoffset: 0; stroke-linejoin: miter; stroke-miterlimit: 4; fill: rgb(28,12,201); fill-rule: nonzero; opacity: 1;"  transform=" translate(-1327.89, -6054.22)" d="M 1388 6361 c -22 -40 -38 -54 -89 -80 c -36 -18 -78 -31 -100 -31 c -44 0 -58 -22 -24 -38 c 13 -6 32 -23 41 -38 c 26 -39 23 -165 -6 -277 c -26 -103 -19 -152 26 -182 c 40 -26 116 -22 170 10 c 80 47 119 139 76 178 c -25 23 -90 21 -129 -3 l -33 -20 l 20 -32 c 52 -86 -10 -165 -84 -107 c -20 16 -26 29 -26 58 c 0 32 7 45 43 78 c 23 21 64 48 90 59 l 48 19 l -7 97 c -3 53 -3 113 0 132 c 7 35 8 36 52 36 c 28 0 43 4 39 10 c -3 6 -24 10 -46 10 c -48 0 -48 -3 -14 148 c 9 40 -19 24 -47 -27 z" stroke-linecap="round" />
</g>
		<g transform="matrix(0.06 0 0 -0.06 -114.38 -144.53)"  >
<path style="stroke: none; stroke-width: 1; stroke-dasharray: none; stroke-linecap: butt; stroke-dashoffset: 0; stroke-linejoin: miter; stroke-miterlimit: 4; fill: rgb(28,12,201); fill-rule: nonzero; opacity: 1;"  transform=" translate(-1810.35, -5869.38)" d="M 1865 6243 c -45 -23 -64 -43 -97 -98 c -33 -55 -32 -57 -12 58 l 6 37 l -112 0 c -101 0 -111 -2 -106 -17 c 41 -134 41 -556 -1 -720 c -5 -23 -4 -23 106 -23 c 61 0 111 4 111 8 c 0 5 -7 53 -15 108 c -8 54 -15 108 -15 118 c 0 18 1 18 20 1 c 30 -27 126 -17 180 19 c 53 35 113 128 135 210 c 34 125 5 258 -65 299 c -35 21 -96 21 -135 0 z m 24 -82 c 27 -27 35 -95 22 -180 c -22 -142 -76 -241 -132 -241 c -44 0 -52 26 -47 160 c 4 108 7 123 37 184 c 20 41 43 72 59 81 c 35 19 39 18 61 -4 z" stroke-linecap="round" />
</g>
		<g transform="matrix(0.06 0 0 -0.06 -79.72 -151.16)"  >
<path style="stroke: none; stroke-width: 1; stroke-dasharray: none; stroke-linecap: butt; stroke-dashoffset: 0; stroke-linejoin: miter; stroke-miterlimit: 4; fill: rgb(28,12,201); fill-rule: nonzero; opacity: 1;"  transform=" translate(-2355.49, -5980.41)" d="M 2262 6241 c -109 -37 -147 -112 -103 -200 c 23 -43 42 -58 160 -121 c 99 -53 126 -83 116 -130 c -9 -39 -58 -73 -95 -65 c -62 15 -95 91 -56 134 c 16 18 15 20 -27 40 c -85 41 -155 15 -144 -55 c 13 -82 98 -136 223 -142 c 99 -5 167 14 212 61 c 53 55 65 112 35 174 c -23 49 -79 86 -185 124 c -110 39 -130 62 -105 114 c 23 47 59 69 94 58 c 36 -12 40 -35 13 -71 c -39 -52 5 -92 87 -79 c 108 18 111 130 4 166 c -51 17 -168 13 -229 -8 z" stroke-linecap="round" />
</g>
		<g transform="matrix(0.06 0 0 -0.06 33.69 -151.17)"  >
<path style="stroke: none; stroke-width: 1; stroke-dasharray: none; stroke-linecap: butt; stroke-dashoffset: 0; stroke-linejoin: miter; stroke-miterlimit: 4; fill: rgb(28,12,201); fill-rule: nonzero; opacity: 1;"  transform=" translate(-4140.47, -5983.94)" d="M 4195 6236 c -65 -39 -104 -103 -135 -219 l -19 -72 l 5 65 c 6 64 20 163 31 208 c 5 22 4 22 -106 22 c -110 0 -111 0 -106 -22 c 34 -153 40 -243 21 -363 c -9 -55 -18 -110 -22 -122 c -6 -23 -6 -23 105 -23 l 112 0 l -7 93 c -4 54 -2 123 5 167 c 13 90 63 194 104 218 c 27 16 29 16 43 -2 c 21 -29 17 -104 -11 -228 c -18 -74 -25 -132 -23 -177 l 3 -66 l 112 -3 l 112 -3 l -20 46 c -35 78 -41 151 -24 271 c 15 106 14 121 -7 177 c -22 58 -105 74 -173 33 z" stroke-linecap="round" />
</g>
		<g transform="matrix(0.06 0 0 -0.06 68.92 -150.83)"  >
<path style="stroke: none; stroke-width: 1; stroke-dasharray: none; stroke-linecap: butt; stroke-dashoffset: 0; stroke-linejoin: miter; stroke-miterlimit: 4; fill: rgb(28,12,201); fill-rule: nonzero; opacity: 1;"  transform=" translate(-4695, -5979.34)" d="M 4616 6244 c -129 -47 -156 -154 -39 -154 c 36 0 50 6 74 29 c 16 17 29 40 29 54 c 0 14 9 35 19 48 l 19 24 l 29 -21 c 39 -29 58 -90 43 -143 c -11 -41 -11 -41 -38 -27 c -140 70 -322 -41 -322 -197 c 0 -95 57 -157 145 -157 c 52 0 89 16 125 55 l 25 27 l 5 -34 l 5 -33 l 112 -3 l 113 -3 l -20 45 c -32 77 -41 150 -29 246 c 17 133 -10 203 -95 241 c -49 22 -144 24 -200 3 z m 115 -214 c 37 -20 18 -161 -30 -229 c -44 -61 -101 -27 -101 59 c 0 57 42 145 78 165 c 33 17 29 17 53 5 z" stroke-linecap="round" />
</g>
		<g transform="matrix(0.06 0 0 -0.06 105.99 -151.08)"  >
<path style="stroke: none; stroke-width: 1; stroke-dasharray: none; stroke-linecap: butt; stroke-dashoffset: 0; stroke-linejoin: miter; stroke-miterlimit: 4; fill: rgb(28,12,201); fill-rule: nonzero; opacity: 1;"  transform=" translate(-5278.5, -5984.6)" d="M 5335 6236 c -65 -39 -104 -103 -135 -219 l -19 -72 l 5 65 c 6 64 20 163 31 208 c 5 22 4 22 -107 22 c -101 0 -111 -2 -106 -17 c 39 -140 40 -330 1 -486 l -7 -27 l 112 0 l 111 0 l -7 93 c -4 54 -2 123 5 167 c 13 90 63 194 104 218 c 27 16 29 16 43 -2 c 21 -29 17 -107 -11 -226 c -14 -60 -25 -136 -25 -177 l 0 -73 l 114 0 l 115 0 l -20 45 c -35 79 -42 155 -24 275 c 9 58 13 115 9 126 c -19 59 -30 76 -55 89 c -41 22 -88 18 -134 -9 z" stroke-linecap="round" />
</g>
		<g transform="matrix(0.06 0 0 -0.06 141.03 -150.76)"  >
<path style="stroke: none; stroke-width: 1; stroke-dasharray: none; stroke-linecap: butt; stroke-dashoffset: 0; stroke-linejoin: miter; stroke-miterlimit: 4; fill: rgb(28,12,201); fill-rule: nonzero; opacity: 1;"  transform=" translate(-5830.02, -5980.24)" d="M 5777 6246 c -94 -34 -157 -107 -178 -204 c -30 -146 31 -275 154 -327 c 48 -20 149 -19 190 1 c 101 51 145 155 83 196 c -21 15 -79 8 -116 -13 l -38 -21 l 24 -36 c 30 -44 32 -97 3 -112 c -33 -18 -89 17 -117 73 c -47 91 -38 255 19 355 c 45 80 119 106 119 42 c 0 -15 -9 -39 -20 -53 c -24 -31 -26 -60 -3 -82 c 13 -13 28 -16 67 -12 c 40 3 55 11 78 36 c 32 36 34 50 12 92 c -33 66 -179 100 -277 65 z" stroke-linecap="round" />
</g>
		<g transform="matrix(0.06 0 0 -0.06 173.12 -150.68)"  >
<path style="stroke: none; stroke-width: 1; stroke-dasharray: none; stroke-linecap: butt; stroke-dashoffset: 0; stroke-linejoin: miter; stroke-miterlimit: 4; fill: rgb(28,12,201); fill-rule: nonzero; opacity: 1;"  transform=" translate(-6335.12, -5979.9)" d="M 6287 6246 c -104 -38 -176 -137 -185 -257 c -12 -167 95 -289 256 -289 c 74 0 124 22 170 75 c 24 27 32 45 32 74 c 0 70 -61 91 -141 51 l -40 -21 l 21 -29 c 30 -42 38 -99 16 -116 c -19 -13 -66 -5 -93 17 c -21 18 -50 79 -58 120 l -7 36 l 59 12 c 120 23 232 98 249 167 c 9 36 -2 93 -23 117 c -47 52 -171 73 -256 43 z m 128 -23 c 26 -25 15 -117 -21 -183 c -29 -54 -84 -100 -118 -100 c -17 0 -18 6 -13 63 c 9 88 34 153 77 198 c 41 44 51 46 75 22 z" stroke-linecap="round" />
</g>
		<g transform="matrix(0.06 0 0 -0.06 5.01 -150.68)"  >
<path style="stroke: none; stroke-width: 1; stroke-dasharray: none; stroke-linecap: butt; stroke-dashoffset: 0; stroke-linejoin: miter; stroke-miterlimit: 4; fill: rgb(28,12,201); fill-rule: nonzero; opacity: 1;"  transform=" translate(-3689.03, -5975)" d="M 3580 6238 c 0 -2 7 -38 15 -81 c 8 -43 15 -123 15 -177 c 0 -54 -7 -134 -15 -177 c -8 -43 -15 -81 -15 -85 c 0 -5 50 -8 111 -8 c 111 0 111 0 105 23 c -4 12 -13 67 -22 122 c -19 121 -14 207 21 363 c 5 22 4 22 -105 22 c -60 0 -110 -1 -110 -2 z" stroke-linecap="round" />
</g>
		<g transform="matrix(0.06 0 0 -0.06 -54.41 -138.4)"  >
<path style="stroke: none; stroke-width: 1; stroke-dasharray: none; stroke-linecap: butt; stroke-dashoffset: 0; stroke-linejoin: miter; stroke-miterlimit: 4; fill: rgb(28,12,201); fill-rule: nonzero; opacity: 1;"  transform=" translate(-2754.56, -5769.32)" d="M 2713 5825 c -52 -22 -69 -77 -35 -108 c 12 -11 36 -17 66 -17 c 39 0 53 5 77 29 c 36 36 37 63 3 90 c -31 24 -66 26 -111 6 z" stroke-linecap="round" />
</g>
		<g transform="matrix(0.06 0 0 -0.06 -11.11 34.8)"  >
<path style="stroke: none; stroke-width: 1; stroke-dasharray: none; stroke-linecap: butt; stroke-dashoffset: 0; stroke-linejoin: miter; stroke-miterlimit: 4; fill: rgb(28,12,201); fill-rule: nonzero; opacity: 1;"  transform=" translate(-3446.81, -2893.64)" d="M 2209 5451 c -51 -16 -85 -49 -332 -321 c -137 -151 -275 -302 -306 -336 c -31 -33 -74 -80 -96 -105 c -112 -124 -350 -386 -435 -479 c -141 -153 -155 -178 -155 -264 c 1 -84 7 -97 129 -271 c 46 -66 132 -190 191 -275 c 58 -85 142 -207 186 -270 c 44 -63 106 -153 138 -200 c 32 -47 107 -156 167 -242 c 60 -87 156 -226 214 -310 c 58 -84 130 -188 161 -233 c 30 -44 89 -129 131 -190 c 41 -60 110 -159 151 -220 c 42 -60 109 -157 149 -215 c 39 -58 86 -125 103 -150 c 17 -25 67 -97 110 -160 c 44 -63 123 -178 177 -255 c 53 -77 115 -167 138 -200 c 257 -374 253 -369 310 -397 c 69 -36 135 -37 205 -4 c 59 28 71 40 160 171 c 38 55 84 123 104 150 c 38 54 139 200 229 333 c 31 45 143 206 247 357 c 105 151 240 347 300 435 c 61 88 154 224 208 302 c 54 78 142 205 195 282 c 53 78 109 159 125 181 c 16 22 79 113 140 202 c 193 280 393 570 554 803 c 206 297 206 297 200 386 c -3 54 -10 80 -27 105 c -21 30 -157 189 -184 214 c -6 6 -77 83 -158 173 c -82 89 -214 235 -295 324 c -82 90 -152 168 -158 174 c -5 6 -28 31 -50 55 c -22 24 -110 121 -195 214 c -84 94 -176 186 -203 205 l -49 35 l -1226 2 c -675 1 -1239 -2 -1253 -6 z m 2320 -478 c 16 -16 121 -129 233 -253 c 111 -125 316 -350 453 -500 c 138 -151 254 -280 258 -287 c 4 -6 3 -14 -1 -17 c -7 -4 -171 167 -285 298 c -10 12 -35 39 -55 61 c -21 22 -129 141 -241 265 c -112 124 -234 256 -270 293 c -113 117 3 107 -1176 107 c -980 0 -1025 -1 -1067 -19 c -49 -21 -111 -83 -393 -396 c -247 -274 -259 -287 -331 -364 c -34 -36 -98 -108 -144 -158 c -45 -51 -87 -90 -92 -87 c -5 4 -1 16 10 28 c 10 11 74 82 142 156 c 68 74 139 153 159 175 c 20 22 106 117 191 210 c 85 94 171 188 191 210 c 19 22 91 100 159 173 l 123 132 l 1053 0 l 1054 0 l 29 -27 z m -94 -520 c 43 -49 105 -118 139 -154 c 85 -91 115 -124 341 -374 c 109 -121 214 -237 233 -257 l 35 -37 l -37 -56 c -20 -31 -41 -55 -45 -53 c -4 2 -99 104 -211 228 c -222 245 -277 304 -301 329 c -8 9 -75 83 -149 164 c -78 86 -150 157 -172 168 c -36 18 -69 19 -825 19 c -721 -1 -791 -2 -823 -18 c -21 -10 -139 -132 -303 -312 c -148 -162 -304 -333 -346 -380 c -43 -47 -100 -110 -127 -142 c -27 -31 -53 -55 -59 -54 c -16 4 -77 97 -71 109 c 2 7 87 102 188 213 c 101 111 219 241 263 290 c 44 48 114 125 155 169 c 41 44 106 115 144 158 l 69 77 l 912 0 l 912 0 l 78 -87 z m -503 -386 c 115 -40 44 -47 -481 -47 c -263 0 -493 3 -510 6 c -34 7 -41 22 -13 30 c 9 3 24 9 32 14 c 8 5 222 9 475 9 c 352 1 469 -2 497 -12 z m -1308 -154 c 4 -5 29 -13 54 -20 c 157 -40 144 -34 139 -67 c -2 -17 -14 -56 -26 -86 c -12 -30 -33 -89 -47 -130 c -15 -41 -30 -79 -35 -84 c -4 -5 -43 5 -91 23 c -46 18 -99 38 -118 46 c -41 15 -115 43 -148 56 c -22 9 -17 16 94 139 c 95 105 122 130 144 130 c 15 0 30 -3 34 -7 z m 1724 -17 c 16 -21 166 -188 200 -222 c 18 -19 15 -31 -10 -37 c -13 -3 -88 -29 -168 -57 c -204 -73 -183 -74 -214 7 c -14 38 -26 71 -26 75 c 0 4 -5 19 -12 35 c -25 62 -47 129 -48 144 c 0 10 15 19 43 26 c 23 6 68 18 100 26 c 32 8 61 17 64 21 c 14 14 53 4 71 -18 z m -958 -231 l 0 -165 l -271 0 c -213 0 -270 3 -266 13 c 2 6 25 71 51 142 c 26 72 51 140 56 153 c 10 22 11 22 220 22 l 210 0 l 0 -165 z m 558 98 c 13 -38 28 -77 32 -88 c 10 -21 60 -166 60 -172 c 0 -2 -120 -2 -267 -1 l -268 3 l -3 163 l -2 162 l 212 0 l 213 0 l 23 -67 z m -1410 -381 l 154 -58 l 20 -49 c 11 -28 24 -59 28 -70 c 5 -11 12 -31 15 -45 c 4 -14 13 -38 20 -55 c 39 -90 217 -586 213 -591 c -3 -2 -22 19 -43 48 c -21 29 -85 116 -142 193 c -99 134 -344 465 -465 629 c -32 43 -58 82 -58 86 c 0 5 24 0 53 -11 c 28 -11 121 -46 205 -77 z m 2018 4 c -161 -218 -271 -367 -451 -610 c -184 -248 -229 -298 -192 -214 c 8 18 27 67 42 108 c 15 41 36 98 47 125 c 11 28 24 64 29 80 c 5 17 13 39 18 50 c 5 11 39 103 77 205 c 37 102 68 186 69 188 c 1 1 49 18 106 38 c 57 20 111 38 119 41 c 40 16 176 62 183 63 c 4 0 -17 -33 -47 -74 z m -1166 -791 c 0 -388 -3 -705 -7 -705 c -5 0 -35 72 -68 161 c -33 88 -67 179 -76 202 c -9 23 -29 76 -44 117 c -15 41 -33 89 -41 107 c -8 17 -14 36 -14 42 c 0 6 -4 19 -10 29 c -5 9 -62 159 -126 332 c -63 173 -124 336 -135 362 c -10 26 -19 49 -19 52 c 0 3 122 6 270 6 l 270 0 l 0 -705 z m 650 700 c 0 -7 -458 -1236 -474 -1270 c -7 -16 -22 -54 -32 -82 c -10 -29 -22 -53 -26 -53 c -4 0 -8 317 -8 705 l 0 705 l 270 0 c 149 0 270 -2 270 -5 z m -1735 -134 c -6 -5 -25 10 -25 20 c 0 5 6 4 14 -3 c 8 -7 12 -15 11 -17 z m 508 -684 c 23 -32 161 -219 307 -415 c 146 -197 276 -375 290 -395 c 14 -20 30 -37 35 -37 c 6 1 39 41 75 90 c 36 49 113 154 171 232 c 276 373 440 595 453 613 c 8 11 64 86 123 167 c 60 80 118 158 129 173 c 26 36 86 118 96 130 c 57 70 68 70 16 0 c -18 -24 -82 -116 -143 -205 c -60 -89 -126 -183 -145 -210 c -19 -27 -54 -77 -78 -112 c -209 -305 -220 -320 -361 -523 c -53 -77 -142 -205 -196 -285 c -55 -80 -109 -159 -121 -174 l -21 -29 l -74 107 c -41 59 -94 136 -119 171 c -25 35 -94 136 -155 225 c -60 88 -175 255 -255 370 c -407 588 -530 768 -530 778 c 0 5 380 -501 503 -671 z" stroke-linecap="round" />
</g>
</g>
</g>
<g transform="matrix(1 0 0 1 19 19)"  >
<g style=""   >
		<g transform="matrix(1 0 0 1 0 0)"  >
<circle style="stroke: rgb(255,255,255); stroke-opacity: 0.5; stroke-width: 2; stroke-dasharray: none; stroke-linecap: butt; stroke-dashoffset: 0; stroke-linejoin: miter; stroke-miterlimit: 4; fill: none; fill-rule: evenodd; opacity: 1;"  cx="0" cy="0" r="18" />
</g>
		<g transform="matrix(1 0 0 1 9 -9)"  >
<path style="stroke: rgb(255,255,255); stroke-width: 2; stroke-dasharray: none; stroke-linecap: butt; stroke-dashoffset: 0; stroke-linejoin: miter; stroke-miterlimit: 4; fill: none; fill-rule: evenodd; opacity: 1;"  transform=" translate(-27, -9)" d="M 36 18 c 0 -9.94 -8.06 -18 -18 -18" stroke-linecap="round" />
</g>
</g>
</g>
</svg>