<?xml version="1.0" encoding="utf-8"?>
<svg version="1.0" width="700.000000pt" height="700.000000pt" viewBox="0 0 700.000000 700.000000" preserveAspectRatio="xMidYMid meet" xmlns="http://www.w3.org/2000/svg">
  <g transform="translate(0.000000,700.000000) scale(0.100000,-0.100000)" fill="#000000" stroke="none">
    <path d="M3653 6499 c-39 -11 -83 -62 -83 -95 0 -14 11 -36 25 -49 51 -52 185 -22 209 46 27 78 -49 127 -151 98z" style="fill: rgb(219, 13, 13);"/>
    <path d="M725 6476 c-99 -32 -166 -81 -216 -158 -107 -166 -87 -376 48 -511 101 -102 236 -131 405 -89 64 17 92 19 123 12 22 -5 41 -7 43 -6 2 2 -4 30 -14 62 -19 67 -15 169 10 228 l15 36 -119 0 -119 0 16 -42 c19 -53 22 -189 4 -240 -12 -36 -15 -38 -57 -38 -118 0 -191 104 -202 287 -9 162 36 301 122 381 117 108 239 51 281 -133 l11 -49 12 95 c6 52 14 109 18 126 l6 31 -78 6 c-216 15 -270 15 -309 2z" style="fill: rgb(219, 13, 13);"/>
    <path d="M2925 6445 c40 -197 39 -504 -1 -702 l-6 -33 122 0 122 0 -6 28 c-12 59 -25 161 -32 250 l-7 92 69 0 c81 0 140 -25 183 -77 l29 -35 0 125 0 126 -31 -36 c-45 -51 -98 -73 -181 -73 l-68 0 6 83 c4 45 12 122 18 170 l11 89 55 -7 c136 -17 237 -89 283 -200 12 -28 13 -25 20 56 5 48 13 105 18 128 l9 40 -310 3 -310 3 7 -30z" style="fill: rgb(219, 13, 13);"/>
    <path d="M1388 6361 c-22 -40 -38 -54 -89 -80 -36 -18 -78 -31 -100 -31 -44 0 -58 -22 -24 -38 13 -6 32 -23 41 -38 26 -39 23 -165 -6 -277 -26 -103 -19 -152 26 -182 40 -26 116 -22 170 10 80 47 119 139 76 178 -25 23 -90 21 -129 -3 l-33 -20 20 -32 c52 -86 -10 -165 -84 -107 -20 16 -26 29 -26 58 0 32 7 45 43 78 23 21 64 48 90 59 l48 19 -7 97 c-3 53 -3 113 0 132 7 35 8 36 52 36 28 0 43 4 39 10 -3 6 -24 10 -46 10 -48 0 -48 -3 -14 148 9 40 -19 24 -47 -27z" style="fill: rgb(219, 13, 13);"/>
    <path d="M1865 6243 c-45 -23 -64 -43 -97 -98 -33 -55 -32 -57 -12 58 l6 37 -112 0 c-101 0 -111 -2 -106 -17 41 -134 41 -556 -1 -720 -5 -23 -4 -23 106 -23 61 0 111 4 111 8 0 5 -7 53 -15 108 -8 54 -15 108 -15 118 0 18 1 18 20 1 30 -27 126 -17 180 19 53 35 113 128 135 210 34 125 5 258 -65 299 -35 21 -96 21 -135 0z m24 -82 c27 -27 35 -95 22 -180 -22 -142 -76 -241 -132 -241 -44 0 -52 26 -47 160 4 108 7 123 37 184 20 41 43 72 59 81 35 19 39 18 61 -4z" style="fill: rgb(219, 13, 13);"/>
    <path d="M2262 6241 c-109 -37 -147 -112 -103 -200 23 -43 42 -58 160 -121 99 -53 126 -83 116 -130 -9 -39 -58 -73 -95 -65 -62 15 -95 91 -56 134 16 18 15 20 -27 40 -85 41 -155 15 -144 -55 13 -82 98 -136 223 -142 99 -5 167 14 212 61 53 55 65 112 35 174 -23 49 -79 86 -185 124 -110 39 -130 62 -105 114 23 47 59 69 94 58 36 -12 40 -35 13 -71 -39 -52 5 -92 87 -79 108 18 111 130 4 166 -51 17 -168 13 -229 -8z" style="fill: rgb(219, 13, 13);"/>
    <path d="M4195 6236 c-65 -39 -104 -103 -135 -219 l-19 -72 5 65 c6 64 20 163 31 208 5 22 4 22 -106 22 -110 0 -111 0 -106 -22 34 -153 40 -243 21 -363 -9 -55 -18 -110 -22 -122 -6 -23 -6 -23 105 -23 l112 0 -7 93 c-4 54 -2 123 5 167 13 90 63 194 104 218 27 16 29 16 43 -2 21 -29 17 -104 -11 -228 -18 -74 -25 -132 -23 -177 l3 -66 112 -3 112 -3 -20 46 c-35 78 -41 151 -24 271 15 106 14 121 -7 177 -22 58 -105 74 -173 33z" style="fill: rgb(219, 13, 13);"/>
    <path d="M4616 6244 c-129 -47 -156 -154 -39 -154 36 0 50 6 74 29 16 17 29 40 29 54 0 14 9 35 19 48 l19 24 29 -21 c39 -29 58 -90 43 -143 -11 -41 -11 -41 -38 -27 -140 70 -322 -41 -322 -197 0 -95 57 -157 145 -157 52 0 89 16 125 55 l25 27 5 -34 5 -33 112 -3 113 -3 -20 45 c-32 77 -41 150 -29 246 17 133 -10 203 -95 241 -49 22 -144 24 -200 3z m115 -214 c37 -20 18 -161 -30 -229 -44 -61 -101 -27 -101 59 0 57 42 145 78 165 33 17 29 17 53 5z" style="fill: rgb(219, 13, 13);"/>
    <path d="M5335 6236 c-65 -39 -104 -103 -135 -219 l-19 -72 5 65 c6 64 20 163 31 208 5 22 4 22 -107 22 -101 0 -111 -2 -106 -17 39 -140 40 -330 1 -486 l-7 -27 112 0 111 0 -7 93 c-4 54 -2 123 5 167 13 90 63 194 104 218 27 16 29 16 43 -2 21 -29 17 -107 -11 -226 -14 -60 -25 -136 -25 -177 l0 -73 114 0 115 0 -20 45 c-35 79 -42 155 -24 275 9 58 13 115 9 126 -19 59 -30 76 -55 89 -41 22 -88 18 -134 -9z" style="fill: rgb(219, 13, 13);"/>
    <path d="M5777 6246 c-94 -34 -157 -107 -178 -204 -30 -146 31 -275 154 -327 48 -20 149 -19 190 1 101 51 145 155 83 196 -21 15 -79 8 -116 -13 l-38 -21 24 -36 c30 -44 32 -97 3 -112 -33 -18 -89 17 -117 73 -47 91 -38 255 19 355 45 80 119 106 119 42 0 -15 -9 -39 -20 -53 -24 -31 -26 -60 -3 -82 13 -13 28 -16 67 -12 40 3 55 11 78 36 32 36 34 50 12 92 -33 66 -179 100 -277 65z" style="fill: rgb(219, 13, 13);"/>
    <path d="M6287 6246 c-104 -38 -176 -137 -185 -257 -12 -167 95 -289 256 -289 74 0 124 22 170 75 24 27 32 45 32 74 0 70 -61 91 -141 51 l-40 -21 21 -29 c30 -42 38 -99 16 -116 -19 -13 -66 -5 -93 17 -21 18 -50 79 -58 120 l-7 36 59 12 c120 23 232 98 249 167 9 36 -2 93 -23 117 -47 52 -171 73 -256 43z m128 -23 c26 -25 15 -117 -21 -183 -29 -54 -84 -100 -118 -100 -17 0 -18 6 -13 63 9 88 34 153 77 198 41 44 51 46 75 22z" style="fill: rgb(219, 13, 13);"/>
    <path d="M3580 6238 c0 -2 7 -38 15 -81 8 -43 15 -123 15 -177 0 -54 -7 -134 -15 -177 -8 -43 -15 -81 -15 -85 0 -5 50 -8 111 -8 111 0 111 0 105 23 -4 12 -13 67 -22 122 -19 121 -14 207 21 363 5 22 4 22 -105 22 -60 0 -110 -1 -110 -2z" style="fill: rgb(219, 13, 13);"/>
    <path d="M2713 5825 c-52 -22 -69 -77 -35 -108 12 -11 36 -17 66 -17 39 0 53 5 77 29 36 36 37 63 3 90 -31 24 -66 26 -111 6z" style="fill: rgb(219, 13, 13);"/>
    <path d="M2209 5451 c-51 -16 -85 -49 -332 -321 -137 -151 -275 -302 -306 -336 -31 -33 -74 -80 -96 -105 -112 -124 -350 -386 -435 -479 -141 -153 -155 -178 -155 -264 1 -84 7 -97 129 -271 46 -66 132 -190 191 -275 58 -85 142 -207 186 -270 44 -63 106 -153 138 -200 32 -47 107 -156 167 -242 60 -87 156 -226 214 -310 58 -84 130 -188 161 -233 30 -44 89 -129 131 -190 41 -60 110 -159 151 -220 42 -60 109 -157 149 -215 39 -58 86 -125 103 -150 17 -25 67 -97 110 -160 44 -63 123 -178 177 -255 53 -77 115 -167 138 -200 257 -374 253 -369 310 -397 69 -36 135 -37 205 -4 59 28 71 40 160 171 38 55 84 123 104 150 38 54 139 200 229 333 31 45 143 206 247 357 105 151 240 347 300 435 61 88 154 224 208 302 54 78 142 205 195 282 53 78 109 159 125 181 16 22 79 113 140 202 193 280 393 570 554 803 206 297 206 297 200 386 -3 54 -10 80 -27 105 -21 30 -157 189 -184 214 -6 6 -77 83 -158 173 -82 89 -214 235 -295 324 -82 90 -152 168 -158 174 -5 6 -28 31 -50 55 -22 24 -110 121 -195 214 -84 94 -176 186 -203 205 l-49 35 -1226 2 c-675 1 -1239 -2 -1253 -6z m2320 -478 c16 -16 121 -129 233 -253 111 -125 316 -350 453 -500 138 -151 254 -280 258 -287 4 -6 3 -14 -1 -17 -7 -4 -171 167 -285 298 -10 12 -35 39 -55 61 -21 22 -129 141 -241 265 -112 124 -234 256 -270 293 -113 117 3 107 -1176 107 -980 0 -1025 -1 -1067 -19 -49 -21 -111 -83 -393 -396 -247 -274 -259 -287 -331 -364 -34 -36 -98 -108 -144 -158 -45 -51 -87 -90 -92 -87 -5 4 -1 16 10 28 10 11 74 82 142 156 68 74 139 153 159 175 20 22 106 117 191 210 85 94 171 188 191 210 19 22 91 100 159 173 l123 132 1053 0 1054 0 29 -27z m-94 -520 c43 -49 105 -118 139 -154 85 -91 115 -124 341 -374 109 -121 214 -237 233 -257 l35 -37 -37 -56 c-20 -31 -41 -55 -45 -53 -4 2 -99 104 -211 228 -222 245 -277 304 -301 329 -8 9 -75 83 -149 164 -78 86 -150 157 -172 168 -36 18 -69 19 -825 19 -721 -1 -791 -2 -823 -18 -21 -10 -139 -132 -303 -312 -148 -162 -304 -333 -346 -380 -43 -47 -100 -110 -127 -142 -27 -31 -53 -55 -59 -54 -16 4 -77 97 -71 109 2 7 87 102 188 213 101 111 219 241 263 290 44 48 114 125 155 169 41 44 106 115 144 158 l69 77 912 0 912 0 78 -87z m-503 -386 c115 -40 44 -47 -481 -47 -263 0 -493 3 -510 6 -34 7 -41 22 -13 30 9 3 24 9 32 14 8 5 222 9 475 9 352 1 469 -2 497 -12z m-1308 -154 c4 -5 29 -13 54 -20 157 -40 144 -34 139 -67 -2 -17 -14 -56 -26 -86 -12 -30 -33 -89 -47 -130 -15 -41 -30 -79 -35 -84 -4 -5 -43 5 -91 23 -46 18 -99 38 -118 46 -41 15 -115 43 -148 56 -22 9 -17 16 94 139 95 105 122 130 144 130 15 0 30 -3 34 -7z m1724 -17 c16 -21 166 -188 200 -222 18 -19 15 -31 -10 -37 -13 -3 -88 -29 -168 -57 -204 -73 -183 -74 -214 7 -14 38 -26 71 -26 75 0 4 -5 19 -12 35 -25 62 -47 129 -48 144 0 10 15 19 43 26 23 6 68 18 100 26 32 8 61 17 64 21 14 14 53 4 71 -18z m-958 -231 l0 -165 -271 0 c-213 0 -270 3 -266 13 2 6 25 71 51 142 26 72 51 140 56 153 10 22 11 22 220 22 l210 0 0 -165z m558 98 c13 -38 28 -77 32 -88 10 -21 60 -166 60 -172 0 -2 -120 -2 -267 -1 l-268 3 -3 163 -2 162 212 0 213 0 23 -67z m-1410 -381 l154 -58 20 -49 c11 -28 24 -59 28 -70 5 -11 12 -31 15 -45 4 -14 13 -38 20 -55 39 -90 217 -586 213 -591 -3 -2 -22 19 -43 48 -21 29 -85 116 -142 193 -99 134 -344 465 -465 629 -32 43 -58 82 -58 86 0 5 24 0 53 -11 28 -11 121 -46 205 -77z m2018 4 c-161 -218 -271 -367 -451 -610 -184 -248 -229 -298 -192 -214 8 18 27 67 42 108 15 41 36 98 47 125 11 28 24 64 29 80 5 17 13 39 18 50 5 11 39 103 77 205 37 102 68 186 69 188 1 1 49 18 106 38 57 20 111 38 119 41 40 16 176 62 183 63 4 0 -17 -33 -47 -74z m-1166 -791 c0 -388 -3 -705 -7 -705 -5 0 -35 72 -68 161 -33 88 -67 179 -76 202 -9 23 -29 76 -44 117 -15 41 -33 89 -41 107 -8 17 -14 36 -14 42 0 6 -4 19 -10 29 -5 9 -62 159 -126 332 -63 173 -124 336 -135 362 -10 26 -19 49 -19 52 0 3 122 6 270 6 l270 0 0 -705z m650 700 c0 -7 -458 -1236 -474 -1270 -7 -16 -22 -54 -32 -82 -10 -29 -22 -53 -26 -53 -4 0 -8 317 -8 705 l0 705 270 0 c149 0 270 -2 270 -5z m-1735 -134 c-6 -5 -25 10 -25 20 0 5 6 4 14 -3 8 -7 12 -15 11 -17z m508 -684 c23 -32 161 -219 307 -415 146 -197 276 -375 290 -395 14 -20 30 -37 35 -37 6 1 39 41 75 90 36 49 113 154 171 232 276 373 440 595 453 613 8 11 64 86 123 167 60 80 118 158 129 173 26 36 86 118 96 130 57 70 68 70 16 0 -18 -24 -82 -116 -143 -205 -60 -89 -126 -183 -145 -210 -19 -27 -54 -77 -78 -112 -209 -305 -220 -320 -361 -523 -53 -77 -142 -205 -196 -285 -55 -80 -109 -159 -121 -174 l-21 -29 -74 107 c-41 59 -94 136 -119 171 -25 35 -94 136 -155 225 -60 88 -175 255 -255 370 -407 588 -530 768 -530 778 0 5 380 -501 503 -671z" style="fill: rgb(219, 13, 13);"/>
  </g>
</svg>